# This file uses centimeters as units for non-parametric coordinates.

mtllib greybox_wall_interior_01.mtl
g default
v 2.092806 -0.053927 2.000000
v 2.092806 0.475458 2.000000
v 2.092806 0.475458 -2.000000
v 2.092806 -0.053927 -2.000000
v 2.000000 -0.053927 -2.000000
v 2.000000 -0.053927 2.000000
v 2.000000 0.000000 -2.000000
v 2.000000 0.000000 2.000000
v 2.603521 0.952138 2.000000
v 2.603521 0.952138 -2.000000
v 2.603521 2.508647 2.000000
v 2.603521 2.508647 -2.000000
v 2.092806 2.902384 2.000000
v 2.092806 2.902384 -2.000000
v 2.000000 2.902384 2.000000
v 2.000000 2.902384 -2.000000
v 2.000000 4.000000 2.000000
v 2.000000 4.000000 -2.000000
v 2.000000 0.000000 0.000000
v 2.000000 -0.053927 0.000000
v 2.092806 -0.053927 0.000000
v 2.092806 0.475458 0.000000
v 2.603521 0.952138 0.000000
v 2.603521 2.508647 0.000000
v 2.092806 2.902384 0.000000
v 2.000000 2.902384 0.000000
v 2.000000 4.000000 0.000000
vt 0.375000 0.000000
vt 0.375000 0.250000
vt 0.125000 0.000000
vt 0.125000 0.250000
vt 0.000000 0.000000
vt 1.000000 0.000000
vt 1.000000 1.000000
vt 0.000000 1.000000
vt 0.000000 0.000000
vt 1.000000 0.000000
vt 1.000000 1.000000
vt 0.000000 1.000000
vt 0.000000 0.000000
vt 1.000000 0.000000
vt 1.000000 1.000000
vt 0.000000 1.000000
vt 0.000000 0.000000
vt 1.000000 0.000000
vt 1.000000 1.000000
vt 0.000000 1.000000
vt 0.000000 0.000000
vt 1.000000 0.000000
vt 1.000000 1.000000
vt 0.000000 1.000000
vt 0.000000 0.000000
vt 1.000000 0.000000
vt 1.000000 1.000000
vt 0.000000 1.000000
vt 0.000000 0.000000
vt 1.000000 0.000000
vt 1.000000 1.000000
vt 0.000000 1.000000
vt 0.500000 1.000000
vt 0.500000 1.000000
vt 0.500000 0.000000
vt 0.250000 0.000000
vt 0.500000 0.000000
vt 0.250000 0.250000
vt 0.500000 0.000000
vt 0.500000 1.000000
vt 0.500000 0.000000
vt 0.500000 1.000000
vt 0.500000 0.000000
vt 0.500000 1.000000
vt 0.500000 0.000000
vt 0.500000 1.000000
vt 0.500000 0.000000
vt 0.500000 1.000000
vn -1.000000 0.000000 0.000000
vn -1.000000 0.000000 0.000000
vn -1.000000 0.000000 0.000000
vn -1.000000 0.000000 0.000000
vn 0.000000 1.000000 0.000000
vn 0.000000 1.000000 0.000000
vn 0.000000 1.000000 0.000000
vn 0.000000 1.000000 0.000000
vn 1.000000 0.000000 0.000000
vn 1.000000 0.000000 0.000000
vn 1.000000 0.000000 0.000000
vn 1.000000 0.000000 0.000000
vn -0.682328 0.731046 0.000000
vn -0.682328 0.731046 0.000000
vn -0.682328 0.731046 0.000000
vn -0.682328 0.731046 0.000000
vn -1.000000 0.000000 0.000000
vn -1.000000 0.000000 0.000000
vn -1.000000 0.000000 0.000000
vn -1.000000 0.000000 0.000000
vn -0.610568 -0.791964 0.000000
vn -0.610568 -0.791964 0.000000
vn -0.610568 -0.791964 0.000000
vn -0.610568 -0.791964 0.000000
vn 0.000000 -1.000000 0.000000
vn 0.000000 -1.000000 0.000000
vn 0.000000 -1.000000 0.000000
vn 0.000000 -1.000000 0.000000
vn -1.000000 0.000000 0.000000
vn -1.000000 0.000000 0.000000
vn -1.000000 0.000000 0.000000
vn -1.000000 0.000000 0.000000
vn 1.000000 0.000000 0.000000
vn 1.000000 0.000000 0.000000
vn 0.000000 1.000000 0.000000
vn 0.000000 1.000000 0.000000
vn -1.000000 0.000000 0.000000
vn -1.000000 0.000000 0.000000
vn -0.682328 0.731046 0.000000
vn -0.682328 0.731046 0.000000
vn -1.000000 0.000000 0.000000
vn -1.000000 0.000000 0.000000
vn -0.610568 -0.791964 0.000000
vn -0.610568 -0.791964 0.000000
vn 0.000000 -1.000000 0.000000
vn 0.000000 -1.000000 0.000000
vn -1.000000 0.000000 0.000000
vn -1.000000 0.000000 0.000000
s 1
g pCube1
usemtl initialShadingGroup
f 4/3/1 21/36/2 22/38/3 3/4/4
s 2
f 20/34/5 21/37/6 4/6/7 5/7/8
s 3
f 19/33/9 20/35/10 5/10/11 7/11/12
s 4
f 3/13/13 22/39/14 23/40/15 10/16/16
s 5
f 10/17/17 23/41/18 24/42/19 12/20/20
s 6
f 12/21/21 24/43/22 25/44/23 14/24/24
s 7
f 14/25/25 25/45/26 26/46/27 16/28/28
s 8
f 16/29/29 26/47/30 27/48/31 18/32/32
s 3
f 6/9/33 20/35/10 19/33/9 8/12/34
s 2
f 1/5/35 21/37/6 20/34/5 6/8/36
s 1
f 22/38/3 21/36/2 1/1/37 2/2/38
s 4
f 23/40/15 22/39/14 2/14/39 9/15/40
s 5
f 24/42/19 23/41/18 9/18/41 11/19/42
s 6
f 25/44/23 24/43/22 11/22/43 13/23/44
s 7
f 26/46/27 25/45/26 13/26/45 15/27/46
s 8
f 27/48/31 26/47/30 15/30/47 17/31/48
