# This file uses centimeters as units for non-parametric coordinates.

mtllib greybox_roof_corner_01.mtl
g default
v 0.000000 4.000000 -2.000000
v 0.000000 4.000000 2.000000
v -0.413900 4.275260 -2.000000
v -0.413900 4.275260 1.586100
v -4.000000 4.275260 -2.000000
v -4.000000 4.275260 1.586100
v 0.000000 4.000000 2.000000
v -4.000000 4.000000 2.000000
vt 1.000000 1.000000
vt 0.896525 1.000000
vt 0.896525 0.000000
vt 1.000000 0.000000
vt 0.463252 1.000000
vt 0.463252 0.000000
vt 0.000000 0.000000
vt 1.000000 0.000000
vt 1.000000 1.000000
vt 0.000000 1.000000
vn -0.553762 -0.832675 0.000000
vn -0.070764 -0.997493 0.000000
vn -0.070764 -0.997493 0.000000
vn -0.553762 -0.832675 0.000000
vn 0.000000 -1.000000 0.000000
vn 0.000000 -1.000000 0.000000
vn 0.000000 -0.832675 -0.553762
vn 0.000000 -0.832675 -0.553762
s 1
g pPlane2
usemtl initialShadingGroup
f 2/1/1 4/2/2 3/3/3 1/4/4
f 3/3/3 4/2/2 6/5/5 5/6/6
f 6/7/5 4/8/2 7/9/7 8/10/8
