# This file uses centimeters as units for non-parametric coordinates.

mtllib greybox_roof_01.mtl
g default
v -0.119918 4.275260 2.000000
v -0.119918 4.275260 -2.000000
v -0.119918 4.076609 2.000000
v -0.119918 4.076609 -2.000000
v 0.000000 4.076609 2.000000
v 0.000000 4.076609 -2.000000
v -1.853009 4.275260 2.000000
v -1.853009 4.275260 -2.000000
v -3.880082 4.275260 -2.000000
v -3.880082 4.275260 2.000000
v -3.880082 4.076609 -2.000000
v -3.880082 4.076609 2.000000
v -4.000000 4.076609 -2.000000
v -4.000000 4.076609 2.000000
vt 0.463252 0.000000
vt 0.463252 1.000000
vt 0.000000 0.000000
vt 1.000000 0.000000
vt 1.000000 1.000000
vt 0.000000 1.000000
vt 0.000000 0.000000
vt 1.000000 0.000000
vt 1.000000 1.000000
vt 0.000000 1.000000
vt 0.679889 1.000000
vt 0.679889 1.000000
vt 0.463252 1.000000
vt 0.463252 0.000000
vt 0.000000 0.000000
vt 1.000000 0.000000
vt 1.000000 1.000000
vt 0.000000 1.000000
vt 0.000000 0.000000
vt 1.000000 0.000000
vt 1.000000 1.000000
vt 0.000000 1.000000
vn 0.000000 -1.000000 0.000000
vn 0.000000 -1.000000 0.000000
vn 0.000000 -1.000000 0.000000
vn 0.000000 -1.000000 0.000000
vn 0.000000 -1.000000 0.000000
vn 0.000000 -1.000000 0.000000
vn -1.000000 0.000000 0.000000
vn -1.000000 0.000000 0.000000
vn -1.000000 0.000000 0.000000
vn -1.000000 0.000000 0.000000
vn 0.000000 -1.000000 0.000000
vn 0.000000 -1.000000 0.000000
vn 0.000000 -1.000000 0.000000
vn 0.000000 -1.000000 0.000000
vn 1.000000 0.000000 0.000000
vn 1.000000 0.000000 0.000000
vn 1.000000 0.000000 0.000000
vn 1.000000 0.000000 0.000000
vn 0.000000 -1.000000 0.000000
vn 0.000000 -1.000000 0.000000
vn 0.000000 -1.000000 0.000000
vn 0.000000 -1.000000 0.000000
s off
g pPlane8
usemtl initialShadingGroup
f 8/11/1 2/2/2 1/1/3 7/12/4 10/13/5 9/14/6
f 1/3/7 2/4/8 4/5/9 3/6/10
f 3/7/11 4/8/12 6/9/13 5/10/14
f 9/15/15 10/16/16 12/17/17 11/18/18
f 11/19/19 12/20/20 14/21/21 13/22/22
