# This file uses centimeters as units for non-parametric coordinates.

mtllib greybox_wall_interior_corner_03.mtl
g default
v 0.092806 -0.053927 -1.907194
v 0.092806 0.475458 -1.907194
v 4.000000 0.475458 -1.907194
v 4.000000 -0.053927 -1.907194
v 4.000000 -0.053927 -2.000000
v 0.092806 -0.053927 -2.000000
v 4.000000 0.000000 -2.000000
v 0.092806 0.000000 -2.000000
v 0.603521 0.952138 -1.396479
v 4.000000 0.952138 -1.396479
v 0.603521 2.508647 -1.396479
v 4.000000 2.508647 -1.396479
v 0.092806 2.902384 -1.907194
v 4.000000 2.902384 -1.907194
v 0.092806 2.902384 -2.000000
v 4.000000 2.902384 -2.000000
v 0.092806 4.000000 -2.000000
v 4.000000 4.000000 -2.000000
v 2.000000 0.000000 -2.000000
v 2.000000 -0.053927 -2.000000
v 2.000000 -0.053927 -1.907194
v 2.000000 0.475458 -1.907194
v 2.000000 0.952138 -1.396479
v 2.000000 2.508647 -1.396479
v 2.000000 2.902384 -1.907194
v 2.000000 2.902384 -2.000000
v 2.000000 4.000000 -2.000000
v 0.092806 -0.053927 2.000000
v 0.092806 0.475458 2.000000
v 0.092806 0.475458 -1.907194
v 0.092806 -0.053927 -1.907194
v 0.000000 -0.053927 -2.000000
v 0.000000 -0.053927 2.000000
v 0.000000 0.000000 -2.000000
v 0.000000 0.000000 2.000000
v 0.603521 0.952138 2.000000
v 0.603521 0.952138 -1.396479
v 0.603521 2.508647 2.000000
v 0.603521 2.508647 -1.396479
v 0.092806 2.902384 2.000000
v 0.092806 2.902384 -1.907194
v 0.000000 2.902384 2.000000
v 0.000000 2.902384 -2.000000
v 0.000000 4.000000 2.000000
v 0.000000 4.000000 -2.000000
v 0.000000 0.000000 0.000000
v 0.000000 -0.053927 0.000000
v 0.092806 -0.053927 0.000000
v 0.092806 0.475458 0.000000
v 0.603521 0.952138 0.000000
v 0.603521 2.508647 0.000000
v 0.092806 2.902384 0.000000
v 0.000000 2.902384 0.000000
v 0.000000 4.000000 0.000000
vt 0.375000 0.000000
vt 0.375000 0.250000
vt 0.125000 0.000000
vt 0.125000 0.250000
vt 0.000000 0.000000
vt 1.000000 0.000000
vt 1.000000 1.000000
vt 0.000000 0.500000
vt 1.000000 0.000000
vt 1.000000 1.000000
vt 0.000000 1.000000
vt 0.000000 0.000000
vt 1.000000 0.000000
vt 1.000000 1.000000
vt 0.000000 1.000000
vt 0.000000 0.000000
vt 1.000000 0.000000
vt 1.000000 1.000000
vt 0.000000 1.000000
vt 0.000000 0.000000
vt 1.000000 0.000000
vt 1.000000 1.000000
vt 0.000000 1.000000
vt 0.000000 0.000000
vt 1.000000 0.000000
vt 1.000000 0.500000
vt 0.000000 1.000000
vt 0.000000 0.000000
vt 1.000000 1.000000
vt 0.000000 1.000000
vt 0.500000 1.000000
vt 0.500000 1.000000
vt 0.500000 0.000000
vt 0.250000 0.000000
vt 0.500000 0.000000
vt 0.250000 0.250000
vt 0.500000 0.000000
vt 0.500000 1.000000
vt 0.500000 0.000000
vt 0.500000 1.000000
vt 0.500000 0.000000
vt 0.500000 1.000000
vt 0.500000 0.000000
vt 0.500000 1.000000
vt 0.500000 0.000000
vt 0.500000 1.000000
vt 0.125000 0.000000
vt 0.250000 0.000000
vt 0.250000 0.250000
vt 0.125000 0.250000
vt 0.500000 1.000000
vt 0.500000 0.000000
vt 1.000000 0.000000
vt 1.000000 0.500000
vt 0.500000 1.000000
vt 0.500000 0.000000
vt 1.000000 1.000000
vt 0.000000 0.000000
vt 0.500000 0.000000
vt 0.500000 1.000000
vt 0.000000 1.000000
vt 0.000000 0.000000
vt 0.500000 0.000000
vt 0.500000 1.000000
vt 0.000000 1.000000
vt 0.000000 0.000000
vt 0.500000 0.000000
vt 0.500000 1.000000
vt 0.000000 1.000000
vt 0.000000 0.000000
vt 0.500000 0.000000
vt 0.500000 1.000000
vt 0.000000 0.500000
vt 0.500000 0.000000
vt 0.500000 1.000000
vt 0.000000 1.000000
vt 0.000000 0.000000
vt 0.000000 1.000000
vt 0.000000 0.000000
vt 0.000000 1.000000
vt 0.375000 0.000000
vt 0.375000 0.250000
vt 1.000000 0.000000
vt 1.000000 1.000000
vt 1.000000 0.000000
vt 1.000000 1.000000
vt 1.000000 0.000000
vt 1.000000 1.000000
vt 1.000000 0.000000
vt 1.000000 1.000000
vt 1.000000 0.000000
vt 1.000000 1.000000
vn 0.000000 0.000000 -1.000000
vn 0.000000 0.000000 -1.000000
vn 0.000000 0.000000 -1.000000
vn 0.000000 0.000000 -1.000000
vn 0.000000 1.000000 0.000000
vn 0.000000 1.000000 0.000000
vn 0.000000 1.000000 0.000000
vn 0.000000 1.000000 0.000000
vn 0.000000 0.000000 1.000000
vn 0.000000 0.000000 1.000000
vn 0.000000 0.000000 1.000000
vn 0.000000 0.000000 1.000000
vn 0.000000 0.731047 -0.682328
vn 0.000000 0.731047 -0.682328
vn 0.000000 0.731047 -0.682328
vn 0.000000 0.731047 -0.682328
vn 0.000000 0.000000 -1.000000
vn 0.000000 0.000000 -1.000000
vn 0.000000 0.000000 -1.000000
vn 0.000000 0.000000 -1.000000
vn 0.000000 -0.791964 -0.610567
vn 0.000000 -0.791964 -0.610567
vn 0.000000 -0.791964 -0.610567
vn 0.000000 -0.791964 -0.610567
vn 0.000000 -1.000000 0.000000
vn 0.000000 -1.000000 0.000000
vn 0.000000 -1.000000 0.000000
vn 0.000000 -1.000000 0.000000
vn 0.000000 0.000000 -1.000000
vn 0.000000 0.000000 -1.000000
vn 0.000000 0.000000 -1.000000
vn 0.000000 0.000000 -1.000000
vn 0.000000 0.000000 1.000000
vn 0.000000 0.000000 1.000000
vn 0.000000 1.000000 0.000000
vn 0.000000 1.000000 0.000000
vn 0.000000 0.000000 -1.000000
vn 0.000000 0.000000 -1.000000
vn 0.000000 0.731046 -0.682328
vn 0.000000 0.731046 -0.682328
vn 0.000000 0.000000 -1.000000
vn 0.000000 0.000000 -1.000000
vn 0.000000 -0.791964 -0.610567
vn 0.000000 -0.791964 -0.610567
vn 0.000000 -1.000000 0.000000
vn 0.000000 -1.000000 0.000000
vn 0.000000 0.000000 -1.000000
vn 0.000000 0.000000 -1.000000
vn -1.000000 0.000000 0.000000
vn -1.000000 0.000000 0.000000
vn -1.000000 0.000000 0.000000
vn -1.000000 0.000000 0.000000
vn 0.000000 1.000000 0.000000
vn 0.000000 1.000000 0.000000
vn 0.000000 1.000000 0.000000
vn 0.000000 1.000000 0.000000
vn 1.000000 0.000000 0.000000
vn 1.000000 0.000000 0.000000
vn 1.000000 0.000000 0.000000
vn 1.000000 0.000000 0.000000
vn -0.682328 0.731046 0.000000
vn -0.682328 0.731046 0.000000
vn -0.682328 0.731046 0.000000
vn -0.682328 0.731046 0.000000
vn -1.000000 0.000000 0.000000
vn -1.000000 0.000000 0.000000
vn -1.000000 0.000000 0.000000
vn -1.000000 0.000000 0.000000
vn -0.610568 -0.791964 0.000000
vn -0.610568 -0.791964 0.000000
vn -0.610568 -0.791964 0.000000
vn -0.610568 -0.791964 0.000000
vn 0.000000 -1.000000 0.000000
vn 0.000000 -1.000000 0.000000
vn 0.000000 -1.000000 0.000000
vn 0.000000 -1.000000 0.000000
vn -1.000000 0.000000 0.000000
vn -1.000000 0.000000 0.000000
vn -1.000000 0.000000 0.000000
vn -1.000000 0.000000 0.000000
vn 1.000000 0.000000 0.000000
vn 1.000000 0.000000 0.000000
vn 0.000000 1.000000 0.000000
vn 0.000000 1.000000 0.000000
vn -1.000000 0.000000 0.000000
vn -1.000000 0.000000 0.000000
vn -0.682328 0.731046 0.000000
vn -0.682328 0.731046 0.000000
vn -1.000000 0.000000 0.000000
vn -1.000000 0.000000 0.000000
vn -0.610568 -0.791964 0.000000
vn -0.610568 -0.791964 0.000000
vn 0.000000 -1.000000 0.000000
vn 0.000000 -1.000000 0.000000
vn -1.000000 0.000000 0.000000
vn -1.000000 0.000000 0.000000
vn 0.000000 0.000000 -1.000000
vn 0.000000 0.000000 -1.000000
vn 0.000000 0.000000 -1.000000
vn 0.000000 0.000000 -1.000000
vn 0.000000 -1.000000 0.000000
vn 0.000000 -0.000000 0.000000
vn 0.000000 -0.000000 0.000000
vn 0.000000 -1.000000 0.000000
vn 0.000000 0.000000 0.000000
vn 0.000000 1.000000 0.000000
vn 0.000000 1.000000 0.000000
vn 0.000000 0.000000 0.000000
vn 0.000000 0.000000 1.000000
vn 0.000000 0.000000 1.000000
vn 0.000000 0.000000 1.000000
vn 0.000000 0.000000 1.000000
s 1
g pCube17
usemtl initialShadingGroup
f 4/3/1 21/34/2 22/36/3 3/4/4
s 2
f 20/32/5 21/35/6 4/6/7 5/7/8
s 3
f 19/31/9 20/33/10 5/9/11 7/10/12
s 4
f 3/12/13 22/37/14 23/38/15 10/15/16
s 5
f 10/16/17 23/39/18 24/40/19 12/19/20
s 6
f 12/20/21 24/41/22 25/42/23 14/23/24
s 7
f 14/24/25 25/43/26 26/44/27 16/27/28
s 8
f 16/28/29 26/45/30 27/46/31 18/30/32
s 3
f 6/8/33 20/33/10 19/31/9 8/11/34
s 2
f 1/5/35 21/35/6 20/32/5 6/8/36
s 1
f 22/36/3 21/34/2 1/1/37 2/2/38
s 4
f 23/38/15 22/37/14 2/13/39 9/14/40
s 5
f 24/40/19 23/39/18 9/17/41 11/18/42
s 6
f 25/42/23 24/41/22 11/21/43 13/22/44
s 7
f 26/44/27 25/43/26 13/25/45 15/26/46
s 8
f 27/46/31 26/45/30 15/26/47 17/29/48
s 9
f 31/47/49 48/48/50 49/49/51 30/50/52
s 10
f 47/51/53 48/52/54 31/53/55 32/54/56
s 11
f 46/55/57 47/56/58 32/54/59 34/57/60
s 12
f 30/58/61 49/59/62 50/60/63 37/61/64
s 13
f 37/62/65 50/63/66 51/64/67 39/65/68
s 14
f 39/66/69 51/67/70 52/68/71 41/69/72
s 15
f 41/70/73 52/71/74 53/72/75 43/73/76
s 16
f 43/73/77 53/74/78 54/75/79 45/76/80
s 11
f 33/77/81 47/56/58 46/55/57 35/78/82
s 10
f 28/79/83 48/52/54 47/51/53 33/80/84
s 9
f 49/49/51 48/48/50 28/81/85 29/82/86
s 12
f 50/60/63 49/59/62 29/83/87 36/84/88
s 13
f 51/64/67 50/63/66 36/85/89 38/86/90
s 14
f 52/68/71 51/67/70 38/87/91 40/88/92
s 15
f 53/72/75 52/71/74 40/89/93 42/90/94
s 16
f 54/75/79 53/74/78 42/91/95 44/92/96
s off
f 17/29/97 15/26/98 43/73/99 45/76/100
f 15/26/101 13/25/102 41/70/103 43/73/104
f 1/5/105 6/8/106 32/54/107 31/53/108
f 6/8/109 8/11/110 34/57/111 32/54/112
