# This file uses centimeters as units for non-parametric coordinates.

mtllib greybox_roof_02.mtl
g default
v -0.119918 4.275260 2.000000
v -0.119918 4.275260 -2.000000
v -0.119918 4.076610 2.000000
v -0.119918 4.076610 -2.000000
v 0.000000 4.076609 2.000000
v 0.000000 4.076609 -2.000000
v -1.853009 4.275260 2.000000
v -1.853009 4.275260 -2.000000
v -3.880082 4.275260 -2.000000
v -3.880082 4.275260 2.000000
v -3.880082 4.076610 -2.000000
v -3.880082 4.076610 2.000000
v -4.000000 4.076609 -2.000000
v -4.000000 4.076609 2.000000
v -0.119918 4.275260 1.863641
v -0.119918 4.076610 1.863641
v 0.000000 4.076609 1.863641
v -3.880082 4.275260 1.863641
v -3.880082 4.076610 1.863641
v -4.000000 4.076609 1.863641
v -3.880082 4.275260 -1.840200
v -3.880082 4.076610 -1.840200
v -4.000000 4.076609 -1.840200
v -0.119918 4.275260 -1.840201
v -0.119918 4.076610 -1.840201
v 0.000000 4.076609 -1.840201
v -1.853009 4.076610 -2.000000
v -1.853009 4.076610 2.000000
v 0.000000 4.275260 2.000000
v 0.000000 4.275260 -2.000000
v 0.000000 4.275260 1.863641
v -4.000000 4.275260 -2.000000
v -4.000000 4.275260 2.000000
v -4.000000 4.275260 -1.840200
v 0.000000 4.275260 -1.840201
v -4.000000 4.275260 1.863641
vt 0.463252 0.000000
vt 0.463252 1.000000
vt 0.000000 0.000000
vt 1.000000 0.000000
vt 1.000000 1.000000
vt 0.000000 1.000000
vt 0.679889 1.000000
vt 0.679889 1.000000
vt 0.463252 1.000000
vt 0.463252 0.000000
vt 0.000000 0.000000
vt 1.000000 0.000000
vt 1.000000 1.000000
vt 0.000000 1.000000
vt 0.034090 0.000000
vt 0.463252 0.034090
vt 0.034090 0.000000
vt 0.034090 1.000000
vt 0.034090 1.000000
vt 0.965910 0.000000
vt 0.463252 0.965910
vt 0.965910 0.000000
vt 0.965910 1.000000
vt 0.965910 1.000000
vt 0.048713 0.000000
vt 0.463252 0.048713
vt 0.048713 0.000000
vt 0.048713 1.000000
vt 0.048713 1.000000
vt 0.951287 0.000000
vt 0.463252 0.951287
vt 0.951287 0.000000
vt 0.951287 1.000000
vt 0.951287 1.000000
vt 0.679889 1.000000
vt 0.463252 1.000000
vt 0.463252 0.951287
vt 0.463252 0.048713
vt 0.463252 0.000000
vt 0.463252 0.965910
vt 0.463252 0.034090
vt 0.463252 0.000000
vt 0.679889 1.000000
vt 0.463252 1.000000
vt 0.000000 0.000000
vt 1.000000 0.000000
vt 1.000000 1.000000
vt 0.000000 1.000000
vt 0.000000 0.000000
vt 1.000000 0.000000
vt 1.000000 1.000000
vt 0.000000 1.000000
vt 0.000000 0.000000
vt 1.000000 0.000000
vt 1.000000 1.000000
vt 0.000000 1.000000
vt 0.000000 0.000000
vt 1.000000 0.000000
vt 1.000000 1.000000
vt 0.000000 1.000000
vt 0.000000 0.000000
vt 1.000000 0.000000
vt 1.000000 1.000000
vt 0.000000 1.000000
vt 0.000000 0.000000
vt 1.000000 0.000000
vt 1.000000 1.000000
vt 0.000000 1.000000
vt 0.000000 0.000000
vt 1.000000 0.000000
vt 1.000000 1.000000
vt 0.000000 1.000000
vt 0.000000 0.000000
vt 1.000000 0.000000
vt 1.000000 1.000000
vt 0.000000 1.000000
vt 0.000000 0.000000
vt 1.000000 0.000000
vt 1.000000 1.000000
vt 0.000000 1.000000
vt 0.000000 0.000000
vt 1.000000 0.000000
vt 1.000000 1.000000
vt 0.000000 1.000000
vn 0.000000 -1.000000 0.000000
vn 0.000000 -1.000000 0.000000
vn 0.000000 -1.000000 0.000000
vn 0.000000 -1.000000 0.000000
vn 0.000000 -1.000000 0.000000
vn -0.000004 -1.000000 0.000000
vn -0.000004 -1.000000 0.000000
vn -0.000004 -1.000000 0.000000
vn -0.000004 -1.000000 0.000000
vn 0.000004 -1.000000 0.000000
vn 0.000004 -1.000000 0.000000
vn 0.000004 -1.000000 0.000000
vn 0.000004 -1.000000 0.000000
vn 0.000000 -1.000000 0.000000
vn 0.000000 -1.000000 0.000000
vn 0.000000 -1.000000 0.000000
vn 0.000000 -1.000000 0.000000
vn 0.000000 -1.000000 0.000000
vn -1.000000 0.000000 0.000000
vn -1.000000 0.000000 0.000000
vn -1.000000 0.000000 0.000000
vn -1.000000 0.000000 0.000000
vn -0.000004 -1.000000 0.000000
vn -0.000004 -1.000000 0.000000
vn 0.000004 -1.000000 0.000000
vn 0.000004 -1.000000 0.000000
vn 0.000004 -1.000000 0.000000
vn 0.000004 -1.000000 0.000000
vn 0.000000 -1.000000 0.000000
vn 0.000000 -1.000000 0.000000
vn 0.000000 -1.000000 0.000000
vn 0.000000 -1.000000 0.000000
vn 1.000000 0.000000 0.000000
vn 1.000000 0.000000 0.000000
vn 1.000000 0.000000 0.000000
vn 1.000000 0.000000 0.000000
vn -0.000004 -1.000000 0.000000
vn -0.000004 -1.000000 0.000000
vn 0.000000 0.000000 -1.000000
vn 0.000000 0.000000 -1.000000
vn 0.000000 0.000000 -1.000000
vn 0.000000 0.000000 -1.000000
vn 0.000000 0.000000 1.000000
vn 0.000000 0.000000 1.000000
vn 0.000000 0.000000 1.000000
vn 0.000000 0.000000 1.000000
vn 0.000000 0.000000 -1.000000
vn 0.000000 0.000000 -1.000000
vn 0.000000 0.000000 -1.000000
vn 0.000000 0.000000 -1.000000
vn 0.000000 0.000000 -1.000000
vn 0.000000 0.000000 -1.000000
vn 0.000000 0.000000 1.000000
vn 0.000000 0.000000 1.000000
vn 0.000000 0.000000 1.000000
vn 0.000000 0.000000 1.000000
vn 0.000000 0.000000 1.000000
vn 0.000000 0.000000 1.000000
vn 0.000000 0.000000 1.000000
vn 0.000000 0.000000 1.000000
vn 0.000000 0.000000 1.000000
vn 0.000000 0.000000 1.000000
vn 0.000000 0.000000 -1.000000
vn 0.000000 0.000000 -1.000000
vn 0.000000 0.000000 -1.000000
vn 0.000000 0.000000 -1.000000
vn 1.000000 0.000000 0.000000
vn 1.000000 0.000000 0.000000
vn 1.000000 0.000000 0.000000
vn 1.000000 0.000000 0.000000
vn 0.000000 0.000000 -1.000000
vn 0.000000 0.000000 -1.000000
vn 0.000000 0.000000 -1.000000
vn 0.000000 0.000000 -1.000000
vn 0.000000 0.000000 1.000000
vn 0.000000 0.000000 1.000000
vn 0.000000 0.000000 1.000000
vn 0.000000 0.000000 1.000000
vn -1.000000 0.000000 0.000000
vn -1.000000 0.000000 0.000000
vn -1.000000 0.000000 0.000000
vn -1.000000 0.000000 0.000000
vn 1.000000 0.000000 0.000000
vn 1.000000 0.000000 0.000000
vn -1.000000 0.000000 0.000000
vn -1.000000 0.000000 0.000000
vn -1.000000 0.000000 0.000000
vn -1.000000 0.000000 0.000000
vn 1.000000 0.000000 0.000000
vn 1.000000 0.000000 0.000000
s off
g pPlane20
usemtl initialShadingGroup
f 27/35/1 4/36/2 25/37/3 22/38/4 11/39/5
s 1
f 3/3/6 16/17/7 17/19/8 5/6/9
s 2
f 11/11/10 22/27/11 23/29/12 13/14/13
s off
f 19/40/14 16/41/15 3/42/16 28/43/17 12/44/18
f 16/18/19 15/15/20 24/30/21 25/33/22
s 1
f 17/19/8 16/17/7 25/32/23 26/34/24
s 2
f 20/24/25 19/22/26 12/12/27 14/13/28
s off
f 21/26/29 24/31/30 15/16/31 18/21/32
f 22/28/33 21/25/34 18/20/35 19/23/36
s 2
f 23/29/12 22/27/11 19/22/26 20/24/25
s 1
f 26/34/24 25/32/23 4/4/37 6/5/38
s 3
f 8/7/39 2/2/40 4/36/41 27/35/42
s off
f 24/31/43 21/26/44 22/38/45 25/37/46
s 3
f 9/10/47 8/7/39 27/35/42 11/39/48
s off
f 18/21/49 15/16/50 16/41/51 19/40/52
s 4
f 1/1/53 7/8/54 28/43/55 3/42/56
f 7/8/54 10/9/57 12/44/58 28/43/55
s off
f 3/45/59 5/46/60 29/47/61 1/48/62
f 6/49/63 4/50/64 2/51/65 30/52/66
s 5
f 5/53/67 17/54/68 31/55/69 29/56/70
s off
f 11/57/71 13/58/72 32/59/73 9/60/74
f 14/61/75 12/62/76 10/63/77 33/64/78
s 6
f 13/65/79 23/66/80 34/67/81 32/68/82
s 5
f 17/69/68 26/70/83 35/71/84 31/72/69
s 6
f 20/73/85 14/74/86 33/75/87 36/76/88
f 23/77/80 20/78/85 36/79/88 34/80/81
s 5
f 26/81/83 6/82/89 30/83/90 35/84/84
