# This file uses centimeters as units for non-parametric coordinates.

mtllib greybox_roof_wallconnect_01.mtl
g default
v 0.000000 4.000000 -6.000000
v 0.000000 4.000000 -2.000000
v -0.413900 4.275260 -6.000000
v -0.413900 4.275260 -2.000000
v -4.000000 4.275260 -6.000000
v -4.000000 4.275260 -2.000000
vt 1.000000 1.000000
vt 0.896525 1.000000
vt 0.896525 0.000000
vt 1.000000 0.000000
vt 0.463252 1.000000
vt 0.463252 0.000000
vn -0.553762 -0.832675 0.000000
vn -0.070764 -0.997493 0.000000
vn -0.070764 -0.997493 0.000000
vn -0.553762 -0.832675 0.000000
vn -0.070764 -0.997493 0.000000
vn -0.070764 -0.997493 0.000000
vn 0.000000 -1.000000 0.000000
vn 0.000000 -1.000000 0.000000
s off
g greybox_roof_wallconnect_01_pPlane2
usemtl initialShadingGroup
f 2/1/1 4/2/2 3/3/3 1/4/4
f 3/3/5 4/2/6 6/5/7 5/6/8
