# This file uses centimeters as units for non-parametric coordinates.

mtllib greybox_wall_interior_corner_01.mtl
g default
v 0.092806 -0.053927 4.000000
v 0.092806 0.475458 4.000000
v 0.092806 0.475458 0.000000
v 0.092806 -0.053927 0.000000
v 0.000000 -0.053927 0.000000
v 0.000000 -0.053927 4.000000
v 0.000000 0.000000 0.000000
v 0.000000 0.000000 4.000000
v 0.603521 0.952138 4.000000
v 0.603521 0.952138 0.000000
v 0.603521 2.508647 4.000000
v 0.603521 2.508647 0.000000
v 0.092806 2.902384 4.000000
v 0.092806 2.902384 0.000000
v 0.000000 2.902384 4.000000
v 0.000000 2.902384 0.000000
v 0.000000 4.000000 4.000000
v 0.000000 4.000000 0.000000
v 0.000000 0.000000 2.000000
v 0.000000 -0.053927 2.000000
v 0.092806 -0.053927 2.000000
v 0.092806 0.475458 2.000000
v 0.603521 0.952138 2.000000
v 0.603521 2.508647 2.000000
v 0.092806 2.902384 2.000000
v 0.000000 2.902384 2.000000
v 0.000000 4.000000 2.000000
v 0.092806 -0.053927 4.092806
v 0.092806 0.475458 4.092806
v 0.000000 -0.053927 4.092806
v 0.603521 0.952138 4.092806
v 0.603521 2.508647 4.092806
v 0.092806 2.902384 4.092806
v 0.000000 2.902384 4.092806
v -4.000000 -0.053927 4.092806
v -4.000000 0.475458 4.092806
v 0.000000 0.475458 4.092806
v -4.000000 -0.053927 4.000000
v -4.000000 0.000000 4.000000
v -4.000000 0.952138 4.603521
v 0.000000 0.952138 4.603521
v -4.000000 2.508647 4.603521
v 0.000000 2.508647 4.603521
v -4.000000 2.902384 4.092806
v -4.000000 2.902384 4.000000
v -4.000000 4.000000 4.000000
v -2.000000 0.000000 4.000000
v -2.000000 -0.053927 4.000000
v -2.000000 -0.053927 4.092806
v -2.000000 0.475458 4.092806
v -2.000000 0.952138 4.603521
v -2.000000 2.508647 4.603521
v -2.000000 2.902384 4.092806
v -2.000000 2.902384 4.000000
v -2.000000 4.000000 4.000000
v 0.092806 0.952138 4.603521
v 0.092806 2.508647 4.603521
v 0.438965 0.952138 4.448833
v 0.438965 2.508647 4.448833
vt 0.375000 0.000000
vt 0.375000 0.250000
vt 0.125000 0.000000
vt 0.125000 0.250000
vt 0.000000 0.000000
vt 1.000000 0.000000
vt 1.000000 1.000000
vt 0.000000 1.000000
vt 0.000000 0.000000
vt 1.000000 0.000000
vt 1.000000 1.000000
vt 0.000000 1.000000
vt 0.000000 0.000000
vt 1.000000 0.000000
vt 1.000000 1.000000
vt 0.000000 1.000000
vt 0.000000 0.000000
vt 1.000000 0.000000
vt 1.000000 1.000000
vt 0.000000 1.000000
vt 0.000000 0.000000
vt 1.000000 0.000000
vt 1.000000 1.000000
vt 0.000000 1.000000
vt 0.000000 0.000000
vt 1.000000 0.000000
vt 1.000000 1.000000
vt 0.000000 1.000000
vt 0.000000 0.000000
vt 1.000000 0.000000
vt 1.000000 1.000000
vt 0.000000 1.000000
vt 0.500000 1.000000
vt 0.500000 1.000000
vt 0.500000 0.000000
vt 0.250000 0.000000
vt 0.500000 0.000000
vt 0.250000 0.250000
vt 0.500000 0.000000
vt 0.500000 1.000000
vt 0.500000 0.000000
vt 0.500000 1.000000
vt 0.500000 0.000000
vt 0.500000 1.000000
vt 0.500000 0.000000
vt 0.500000 1.000000
vt 0.500000 0.000000
vt 0.500000 1.000000
vt 0.000000 0.000000
vt 1.000000 0.000000
vt 1.000000 1.000000
vt 0.000000 1.000000
vt 0.000000 0.000000
vt 1.000000 0.000000
vt 1.000000 1.000000
vt 0.000000 1.000000
vt 0.000000 0.000000
vt 1.000000 0.000000
vt 0.500000 1.000000
vt 0.000000 1.000000
vt 0.000000 0.000000
vt 1.000000 0.000000
vt 1.000000 1.000000
vt 0.000000 1.000000
vt 0.000000 0.000000
vt 1.000000 0.000000
vt 1.000000 1.000000
vt 0.500000 1.000000
vt 0.000000 0.000000
vt 1.000000 0.000000
vt 1.000000 1.000000
vt 0.000000 1.000000
vt 0.125000 0.000000
vt 0.250000 0.000000
vt 0.250000 0.250000
vt 0.125000 0.250000
vt 0.500000 1.000000
vt 0.500000 0.000000
vt 1.000000 0.000000
vt 1.000000 1.000000
vt 0.500000 1.000000
vt 0.500000 0.000000
vt 1.000000 0.000000
vt 1.000000 1.000000
vt 0.000000 0.000000
vt 0.500000 0.000000
vt 0.500000 1.000000
vt 0.000000 1.000000
vt 0.000000 0.000000
vt 0.500000 0.000000
vt 0.500000 1.000000
vt 0.000000 1.000000
vt 0.000000 0.000000
vt 0.500000 0.000000
vt 0.500000 1.000000
vt 0.000000 1.000000
vt 0.000000 0.000000
vt 0.500000 0.000000
vt 0.500000 1.000000
vt 0.000000 1.000000
vt 0.000000 0.000000
vt 0.500000 0.000000
vt 0.500000 1.000000
vt 0.000000 1.000000
vt 0.000000 0.000000
vt 0.000000 1.000000
vt 0.000000 0.000000
vt 0.000000 1.000000
vt 0.375000 0.000000
vt 0.375000 0.250000
vt 1.000000 0.000000
vt 1.000000 1.000000
vt 1.000000 0.000000
vt 1.000000 1.000000
vt 1.000000 0.000000
vt 1.000000 1.000000
vt 1.000000 0.000000
vt 1.000000 1.000000
vt 1.000000 0.000000
vt 1.000000 1.000000
vt 0.000000 0.000000
vt 1.000000 0.000000
vt 1.000000 1.000000
vt 0.000000 0.000000
vt 1.000000 0.000000
vt 1.000000 1.000000
vt 0.000000 1.000000
vt 0.000000 0.000000
vt 1.000000 0.000000
vt 0.000000 1.000000
vt 0.501207 1.000000
vt 0.498793 1.000000
vt 0.501207 1.000000
vt 0.498793 1.000000
vn -1.000000 0.000000 0.000000
vn -1.000000 0.000000 0.000000
vn -1.000000 0.000000 0.000000
vn -1.000000 0.000000 0.000000
vn 0.000000 1.000000 0.000000
vn 0.000000 1.000000 0.000000
vn 0.000000 1.000000 0.000000
vn 0.000000 1.000000 0.000000
vn 1.000000 0.000000 0.000000
vn 1.000000 0.000000 0.000000
vn 1.000000 0.000000 0.000000
vn 1.000000 0.000000 0.000000
vn -0.682328 0.731046 0.000000
vn -0.682328 0.731046 0.000000
vn -0.682328 0.731046 0.000000
vn -0.682328 0.731046 0.000000
vn -1.000000 0.000000 0.000000
vn -1.000000 0.000000 0.000000
vn -1.000000 0.000000 0.000000
vn -1.000000 0.000000 0.000000
vn -0.610568 -0.791964 0.000000
vn -0.610568 -0.791964 0.000000
vn -0.610568 -0.791964 0.000000
vn -0.610568 -0.791964 0.000000
vn 0.000000 -1.000000 0.000000
vn 0.000000 -1.000000 0.000000
vn 0.000000 -1.000000 0.000000
vn 0.000000 -1.000000 0.000000
vn -1.000000 0.000000 0.000000
vn -1.000000 0.000000 0.000000
vn -1.000000 0.000000 0.000000
vn -1.000000 0.000000 0.000000
vn 1.000000 0.000000 0.000000
vn 1.000000 0.000000 0.000000
vn 0.000000 1.000000 0.000000
vn 0.000000 1.000000 0.000000
vn -1.000000 0.000000 0.000000
vn -1.000000 0.000000 0.000000
vn -0.682328 0.731046 0.000000
vn -0.682328 0.731046 0.000000
vn -1.000000 0.000000 0.000000
vn -1.000000 0.000000 0.000000
vn -0.610568 -0.791964 0.000000
vn -0.610568 -0.791964 0.000000
vn 0.000000 -1.000000 0.000000
vn 0.000000 -1.000000 0.000000
vn -1.000000 0.000000 0.000000
vn -1.000000 0.000000 0.000000
vn -1.000000 0.000000 0.000000
vn -1.000000 0.000000 0.000000
vn 0.000000 1.000000 0.000000
vn 0.000000 1.000000 0.000000
vn -0.436763 0.787994 -0.433939
vn -0.670202 0.718054 -0.187690
vn -0.938887 0.000000 -0.344225
vn -0.938887 0.000000 -0.344225
vn -0.601978 -0.780824 -0.167142
vn -0.386844 -0.838285 -0.384225
vn 0.000000 -1.000000 0.000002
vn 0.000000 -1.000000 0.000002
vn 0.000000 0.000000 -1.000000
vn 0.000000 0.000000 -1.000000
vn 0.000000 0.000000 -1.000000
vn 0.000000 0.000000 -1.000000
vn 0.000000 1.000000 0.000000
vn 0.000000 1.000000 0.000000
vn 0.000000 0.000000 1.000000
vn 0.000000 0.000000 1.000000
vn 0.000000 0.000000 1.000000
vn 0.000000 0.000000 1.000000
vn 0.000000 0.731047 -0.682328
vn 0.000000 0.731047 -0.682328
vn 0.000000 0.731047 -0.682328
vn 0.000000 0.731047 -0.682328
vn 0.000000 0.000000 -1.000000
vn 0.000000 0.000000 -1.000000
vn 0.000000 0.000000 -1.000000
vn 0.000000 0.000000 -1.000000
vn 0.000000 -0.791965 -0.610567
vn 0.000000 -0.791964 -0.610567
vn 0.000000 -0.791964 -0.610567
vn 0.000000 -0.791965 -0.610567
vn 0.000000 -1.000000 -0.000000
vn 0.000000 -1.000000 -0.000000
vn 0.000000 -1.000000 -0.000000
vn 0.000000 -1.000000 -0.000000
vn 0.000000 0.000000 -1.000000
vn 0.000000 0.000000 -1.000000
vn 0.000000 0.000000 -1.000000
vn 0.000000 0.000000 -1.000000
vn 0.000000 0.000000 1.000000
vn 0.000000 0.000000 1.000000
vn 0.000000 1.000000 0.000000
vn 0.000000 1.000000 0.000000
vn 0.000000 0.000000 -1.000000
vn 0.000000 0.000000 -1.000000
vn 0.000000 0.731047 -0.682328
vn 0.000000 0.731047 -0.682328
vn 0.000000 0.000000 -1.000000
vn 0.000000 0.000000 -1.000000
vn 0.000000 -0.791964 -0.610567
vn 0.000000 -0.791964 -0.610567
vn 0.000000 -1.000000 0.000000
vn 0.000000 -1.000000 0.000000
vn 0.000000 0.000000 -1.000000
vn 0.000000 0.000000 -1.000000
vn 0.000000 0.000000 -1.000000
vn 0.000000 0.000000 -1.000000
vn -0.180210 0.719078 -0.671157
vn -0.332362 0.000000 -0.943152
vn -0.332362 0.000000 -0.943152
vn -0.160468 -0.781701 -0.602655
vn -0.438600 -0.783546 -0.440097
vn -0.707107 0.000000 -0.707106
vn -0.707107 0.000000 -0.707106
vn -0.488949 0.721379 -0.490450
s 1
g pCube4
usemtl initialShadingGroup
f 4/3/1 21/36/2 22/38/3 3/4/4
s 2
f 20/34/5 21/37/6 4/6/7 5/7/8
s 3
f 19/33/9 20/35/10 5/10/11 7/11/12
s 4
f 3/13/13 22/39/14 23/40/15 10/16/16
s 5
f 10/17/17 23/41/18 24/42/19 12/20/20
s 6
f 12/21/21 24/43/22 25/44/23 14/24/24
s 7
f 14/25/25 25/45/26 26/46/27 16/28/28
s 8
f 16/29/29 26/47/30 27/48/31 18/32/32
s 3
f 6/9/33 20/35/10 19/33/9 8/12/34
s 2
f 1/5/35 21/37/6 20/34/5 6/8/36
s 1
f 22/38/3 21/36/2 1/1/37 2/2/38
s 4
f 23/40/15 22/39/14 2/14/39 9/15/40
s 5
f 24/42/19 23/41/18 9/18/41 11/19/42
s 6
f 25/44/23 24/43/22 11/22/43 13/23/44
s 7
f 26/46/27 25/45/26 13/26/45 15/27/46
s 8
f 27/48/31 26/47/30 15/30/47 17/31/48
s 1
f 2/49/38 1/50/37 28/51/49 29/52/50
s 2
f 1/53/35 6/54/36 30/55/51 28/56/52
s 4
f 9/57/40 2/58/39 29/59/53 31/60/54
s 5
f 11/61/42 9/62/41 31/63/55 32/64/56
s 6
f 13/65/44 11/66/43 32/67/57 33/68/58
s 7
f 15/69/46 13/70/45 33/71/59 34/72/60
s 9
f 30/73/61 49/74/62 50/75/63 37/76/64
s 2
f 48/77/65 49/78/66 30/79/51 6/80/36
s 10
f 47/81/67 48/82/68 6/83/69 8/84/70
s 4
f 37/85/71 50/86/72 51/87/73 41/88/74
s 5
f 41/89/75 51/90/76 52/91/77 43/92/78
s 6
f 43/93/79 52/94/80 53/95/81 34/96/82
s 14
f 34/97/83 53/98/84 54/99/85 15/100/86
s 15
f 15/101/87 54/102/88 55/103/89 17/104/90
s 10
f 38/105/91 48/82/68 47/81/67 39/106/92
s 2
f 35/107/93 49/78/66 48/77/65 38/108/94
s 9
f 50/75/63 49/74/62 35/109/95 36/110/96
s 4
f 51/87/73 50/86/72 36/111/97 40/112/98
s 5
f 52/91/77 51/90/76 40/113/99 42/114/100
s 6
f 53/95/81 52/94/80 42/115/101 44/116/102
s 14
f 54/99/85 53/98/84 44/117/103 45/118/104
s 15
f 55/103/89 54/102/88 45/119/105 46/120/106
s 9
f 29/52/107 28/51/108 30/73/61 37/76/64
s 4
f 37/121/71 41/122/74 56/123/109 29/59/53
s 5
f 41/124/75 43/125/78 57/126/110 56/127/111
s 6
f 43/128/79 34/129/82 33/68/58 57/130/112
f 33/68/58 32/67/57 59/133/113
s 5
f 32/64/56 31/63/55 58/131/114 59/134/115
s 4
f 31/60/54 29/59/53 58/132/116
f 58/132/116 29/59/53 56/123/109
s 5
f 59/134/115 58/131/114 56/127/111 57/126/110
s 6
f 33/68/58 59/133/113 57/130/112
