# This file uses centimeters as units for non-parametric coordinates.

mtllib greybox_wall_interior_corner_02.mtl
g default
v -3.931601 -0.061757 6.070656
v -3.931601 0.467628 6.070656
v -0.020000 -0.053927 1.980000
v -3.996086 -0.061757 6.003914
v 0.000000 -0.000000 2.000000
v -3.996086 -0.007830 6.003914
v -3.576735 0.944308 6.437944
v -3.576735 2.500817 6.437944
v -3.931601 2.894555 6.070656
v -3.996086 2.894555 6.003914
v 0.010035 2.902384 2.054311
v -3.996086 3.992170 6.003914
v 0.010035 4.000000 2.054311
v 0.092806 -0.053927 2.000000
v 0.092806 0.475458 2.000000
v 0.092806 0.475458 -2.000000
v 0.092806 -0.053927 -2.000000
v 0.000000 -0.053927 -2.000000
v 0.000000 0.000000 -2.000000
v 0.603521 0.952138 2.000000
v 0.603521 0.952138 -2.000000
v 0.603521 2.508647 2.000000
v 0.603521 2.508647 -2.000000
v 0.092806 2.902384 2.000000
v 0.092806 2.902384 -2.000000
v 0.000000 2.902384 -2.000000
v 0.000000 4.000000 -2.000000
vt 0.375000 0.000000
vt 0.375000 0.250000
vt 0.000000 0.000000
vt 1.000000 1.000000
vt 0.000000 1.000000
vt 0.000000 0.000000
vt 1.000000 0.000000
vt 1.000000 1.000000
vt 0.000000 1.000000
vt 1.000000 0.000000
vt 1.000000 1.000000
vt 1.000000 0.000000
vt 1.000000 1.000000
vt 1.000000 0.000000
vt 1.000000 1.000000
vt 1.000000 0.000000
vt 1.000000 1.000000
vt 0.000000 0.000000
vt 1.000000 0.000000
vt 1.000000 1.000000
vt 0.000000 1.000000
vt 0.125000 0.000000
vt 0.125000 0.250000
vt 1.000000 0.000000
vt 1.000000 1.000000
vt 1.000000 0.000000
vt 1.000000 1.000000
vt 0.000000 0.000000
vt 0.000000 1.000000
vt 0.000000 0.000000
vt 0.000000 1.000000
vt 0.000000 0.000000
vt 0.000000 1.000000
vt 0.000000 0.000000
vt 0.000000 1.000000
vt 0.000000 0.000000
vt 0.000000 1.000000
vt 0.000000 0.000000
vt 0.000000 1.000000
vt 0.000000 0.000000
vt 0.000000 1.000000
vt 0.375000 0.000000
vt 0.375000 0.250000
vt 1.000000 0.000000
vt 1.000000 1.000000
vt 1.000000 0.000000
vt 1.000000 1.000000
vt 1.000000 0.000000
vt 1.000000 1.000000
vt 1.000000 0.000000
vt 1.000000 1.000000
vt 1.000000 0.000000
vt 1.000000 1.000000
vt 0.000000 0.000000
vt 1.000000 0.000000
vt 0.000000 0.000000
vt 0.000000 0.000000
vt 1.000000 0.000000
vt 0.000000 0.000000
vt 1.000000 0.000000
vt 0.000000 0.000000
vt 1.000000 0.000000
vt 0.000000 0.000000
vt 1.000000 0.000000
vn -0.711135 0.000000 -0.703055
vn -0.711135 0.000000 -0.703055
vn -0.894988 0.000000 -0.446090
vn -0.894834 0.000000 -0.446399
vn -0.000395 1.000000 0.000806
vn -0.000638 0.999999 0.001304
vn -0.000638 0.999999 0.001304
vn -0.000302 1.000000 0.000617
vn 0.686601 -0.253664 0.681346
vn 0.686601 -0.253664 0.681347
vn 0.686601 -0.253664 0.681346
vn 0.686601 -0.253664 0.681346
vn -0.702066 0.000000 -0.712112
vn -0.702066 0.000000 -0.712112
vn -0.702066 0.000000 -0.712112
vn -0.702066 0.000000 -0.712112
vn -1.000000 0.000000 0.000000
vn -1.000000 0.000000 0.000000
vn 0.000000 1.000000 0.000000
vn 0.000000 1.000000 0.000000
vn 0.983153 -0.182767 0.002464
vn 0.983153 -0.182767 0.002464
vn 0.983153 -0.182767 0.002464
vn 0.983153 -0.182767 0.002464
vn -0.682328 0.731046 0.000000
vn -0.682328 0.731046 0.000000
vn -0.603618 0.720304 -0.341772
vn -0.632686 0.732173 -0.252253
vn -1.000000 0.000000 0.000000
vn -1.000000 0.000000 0.000000
vn -0.895997 0.000000 -0.444059
vn -0.896134 0.000000 -0.443783
vn -0.610568 -0.791964 0.000000
vn -0.610568 -0.791964 0.000000
vn -0.567102 -0.793441 -0.221014
vn -0.540364 -0.782130 -0.310290
vn 0.000000 -1.000000 -0.000000
vn 0.000000 -1.000000 -0.000000
vn 0.000012 -1.000000 -0.000146
vn 0.000111 -0.999999 -0.001309
vn -0.999997 0.000000 0.002475
vn -0.999997 0.000000 0.002475
vn -0.999997 0.000000 0.002475
vn -0.999997 0.000000 0.002475
vn -0.530006 0.677621 -0.509827
vn -0.530006 0.677621 -0.509827
vn -0.727924 0.000000 -0.685658
vn -0.727924 0.000000 -0.685657
vn -0.480089 -0.744266 -0.464309
vn -0.480089 -0.744266 -0.464309
vn 0.000152 -0.999998 -0.001796
vn 0.000152 -0.999998 -0.001796
s 1
g pCube8
usemtl initialShadingGroup
f 1/1/1 2/2/2 15/54/3 14/55/4
s 2
f 3/4/5 4/5/6 1/3/7 14/56/8
s off
f 3/7/9 5/8/10 6/9/11 4/6/12
f 12/20/13 13/21/14 11/18/15 10/19/16
s 1
f 16/23/17 17/22/18 14/42/4 15/43/3
s 2
f 17/24/19 18/25/20 3/41/5 14/40/8
s off
f 18/26/21 19/27/22 5/39/23 3/38/24
s 3
f 21/29/25 16/28/26 15/44/27 20/45/28
s 4
f 23/31/29 21/30/30 20/46/31 22/47/32
s 5
f 25/33/33 23/32/34 22/48/35 24/49/36
s 6
f 26/35/37 25/34/38 24/50/39 11/51/40
s off
f 13/53/41 27/37/42 26/36/43 11/52/44
s 3
f 7/11/45 20/57/28 15/58/27 2/10/46
s 4
f 8/13/47 22/59/32 20/60/31 7/12/48
s 5
f 9/15/49 24/61/36 22/62/35 8/14/50
s 6
f 11/63/40 24/64/39 9/16/51 10/17/52
